<svg width="77" height="80" viewBox="0 0 77 80" fill="none" xmlns="http://www.w3.org/2000/svg">
<path d="M60.8815 64.8889C60.8815 68.816 57.7412 72 53.8678 72H15.2925C11.4192 72 8.27881 68.816 8.27881 64.8889V15.1111C8.27881 11.184 11.4192 8 15.2925 8H53.8678C57.7412 8 60.8815 11.184 60.8815 15.1111V64.8889Z" fill="#CCD6DD"/>
<path d="M53.8678 50.6667C53.8678 51.6498 53.084 52.4445 52.1144 52.4445H17.0459C16.078 52.4445 15.2925 51.6498 15.2925 50.6667C15.2925 49.6836 16.078 48.8889 17.0459 48.8889H52.1144C53.084 48.8889 53.8678 49.6836 53.8678 50.6667ZM25.813 57.7778C25.813 58.7609 25.0275 59.5556 24.0596 59.5556H17.0459C16.078 59.5556 15.2925 58.7609 15.2925 57.7778C15.2925 56.7947 16.078 56 17.0459 56H24.0596C25.0275 56 25.813 56.7947 25.813 57.7778ZM53.8678 22.2222C53.8678 23.2036 53.084 24 52.1144 24H17.0459C16.078 24 15.2925 23.2036 15.2925 22.2222C15.2925 21.2409 16.078 20.4445 17.0459 20.4445H52.1144C53.084 20.4445 53.8678 21.2409 53.8678 22.2222ZM53.8678 29.3333C53.8678 30.3165 53.084 31.1111 52.1144 31.1111H17.0459C16.078 31.1111 15.2925 30.3165 15.2925 29.3333C15.2925 28.3502 16.078 27.5556 17.0459 27.5556H52.1144C53.084 27.5556 53.8678 28.3502 53.8678 29.3333ZM53.8678 36.4445C53.8678 37.4276 53.084 38.2222 52.1144 38.2222H17.0459C16.078 38.2222 15.2925 37.4276 15.2925 36.4445C15.2925 35.4613 16.078 34.6667 17.0459 34.6667H52.1144C53.084 34.6667 53.8678 35.4613 53.8678 36.4445ZM53.8678 43.5556C53.8678 44.5387 53.084 45.3333 52.1144 45.3333H17.0459C16.078 45.3333 15.2925 44.5387 15.2925 43.5556C15.2925 42.5725 16.078 41.7778 17.0459 41.7778H52.1144C53.084 41.7778 53.8678 42.5725 53.8678 43.5556Z" fill="#99AAB5"/>
<path d="M60.8812 19.1503C59.4311 18.1991 57.6601 18.1209 56.4608 19.1094L55.0721 20.2578L52.47 22.4107L52.2947 22.5529L48.1285 25.9983L27.3014 43.2178C26.5351 43.8525 25.9109 45.3849 25.2446 46.9049C24.5818 48.416 23.5455 51.9751 22.7144 54.7111C22.4549 55.1556 20.847 57.9929 21.7483 59.072C22.66 60.1654 25.8267 59.0898 26.2511 58.9369C29.1021 58.6276 32.7931 58.2738 34.401 57.9058C36.0211 57.5307 37.6518 57.2036 38.4181 56.5689C38.4321 56.5583 38.4356 56.5369 38.4479 56.528L59.24 39.344L60.6287 38.1956L60.8812 37.9858V19.1503Z" fill="#66757F"/>
<path d="M38.3408 48.0462C38.3408 48.0462 36.1069 44.7022 34.6288 43.5075C33.4505 42.0089 30.1593 39.7457 30.1593 39.7457C29.3738 38.9529 28.071 38.8924 27.303 39.6693C26.5367 40.448 25.9125 42.0977 25.2462 43.7422C24.4186 45.7795 23.0088 51.1271 22.1461 53.968C22.0006 54.4515 23.0527 53.168 23.0281 53.5946C23.0106 53.9271 23.0755 54.2951 23.1579 54.6275L22.9019 54.9102L23.2666 55.0293C23.3104 55.1751 23.3543 55.3031 23.3858 55.4026L23.6646 55.1431C23.9925 55.2266 24.3555 55.2924 24.6816 55.2746C25.1024 55.2497 23.8347 56.3182 24.3134 56.1689C27.1154 55.2924 32.3914 53.8649 34.3991 53.0257C36.0192 52.3484 37.6499 51.7173 38.4162 50.9386C39.1859 50.1653 39.1281 48.8444 38.3408 48.0462Z" fill="#D99E82"/>
<path d="M50.9079 15.7351C49.3719 17.2906 49.3719 19.8115 50.9079 21.3671L56.461 26.9991C57.997 28.5528 60.4833 28.5528 62.0158 26.9991L67.5724 21.3671C69.1049 19.8115 69.1049 17.2906 67.5724 15.7351L62.0158 10.1031C60.4833 8.54751 57.997 8.54751 56.461 10.1031L50.9079 15.7351Z" fill="#EA596E"/>
<path d="M27.3018 39.6711L32.8601 45.3066L38.4097 50.9351L59.2421 29.8169L48.1307 18.5529L27.3018 39.6711Z" fill="#FFCC4D"/>
<path d="M26.3351 55.5414C26.3351 55.5414 22.7231 57.5556 21.7482 56.5654C20.7715 55.5734 22.7669 51.9236 22.7669 51.9236C22.7669 51.9236 26.1878 51.9876 26.3351 55.5414Z" fill="#292F33"/>
<path d="M48.1309 18.551L55.0744 11.511L66.1841 22.7768L59.2406 29.8168L48.1309 18.551Z" fill="#CCD6DD"/>
<path d="M52.2952 14.3253L53.6839 12.9173L64.7936 24.1795L63.4049 25.5875L52.2952 14.3253ZM49.5195 17.1413L50.9065 15.7351L62.0162 26.9973L60.6275 28.4053L49.5195 17.1413Z" fill="#99AAB5"/>
</svg>
