<svg width="81" height="80" viewBox="0 0 81 80" fill="none" xmlns="http://www.w3.org/2000/svg">
<path d="M37.0811 60.1025C38.013 60.7547 39.1658 61.01 40.2859 60.8122C41.406 60.6145 42.4017 59.9798 43.0539 59.048C43.1662 58.8883 43.2458 58.708 43.2881 58.5175C43.3305 58.327 43.3348 58.13 43.3009 57.9378C43.2669 57.7456 43.1952 57.562 43.0901 57.3976C42.9849 57.2332 42.8483 57.0911 42.6881 56.9797L39.2533 53.361L47.0921 58.8474C47.3915 59.0579 47.7295 59.2071 48.0867 59.2865C48.4439 59.366 48.8133 59.3741 49.1737 59.3105C49.534 59.2468 49.8783 59.1126 50.1867 58.9156C50.495 58.7186 50.7615 58.4626 50.9707 58.1623C51.1803 57.8627 51.329 57.5247 51.408 57.1676C51.4871 56.8105 51.495 56.4413 51.4314 56.0812C51.3678 55.721 51.2338 55.3769 51.0372 55.0685C50.8406 54.7601 50.5852 54.4935 50.2855 54.2838L43.609 48.1476L53.5885 55.1341C53.8879 55.3446 54.2259 55.4938 54.5831 55.5732C54.9403 55.6527 55.3097 55.6608 55.6701 55.5972C56.0305 55.5335 56.3747 55.3993 56.6831 55.2023C56.9914 55.0053 57.2579 54.7493 57.4671 54.449C57.6768 54.1494 57.8254 53.8114 57.9044 53.4543C57.9835 53.0972 57.9914 52.728 57.9278 52.3679C57.8642 52.0077 57.7302 51.6636 57.5336 51.3552C57.337 51.0468 57.0816 50.7802 56.782 50.5705L47.9332 43.0084L58.8206 50.6299C59.12 50.8403 59.458 50.9895 59.8152 51.069C60.1724 51.1484 60.5418 51.1566 60.9021 51.0929C61.2625 51.0293 61.6067 50.8951 61.9151 50.6981C62.2235 50.501 62.4899 50.2451 62.6991 49.9448C62.9088 49.6452 63.0574 49.3071 63.1365 48.9501C63.2155 48.593 63.2235 48.2238 63.1598 47.8636C63.0962 47.5035 62.9623 47.1594 62.7657 46.851C62.5691 46.5426 62.3137 46.276 62.014 46.0663L15.3675 24.5718L8.93053 34.8224C8.2083 35.9364 8.4051 37.4458 9.44297 38.3333L23.8988 50.719C24.558 51.2835 25.2431 51.8163 25.9542 52.3139L37.0811 60.1025Z" fill="#EF9645"/>
<path d="M61.9125 44.1743L40.9287 29.0408L40.8191 28.8922L40.9175 28.7437L41.0159 28.6453L42.6015 29.5161C44.3802 30.6672 48.4444 32.3679 51.5246 32.3679C53.6319 32.3679 54.8944 31.5788 55.2713 30.0341C55.3859 29.3512 55.2251 28.6508 54.8242 28.0863C54.4232 27.5219 53.8149 27.1393 53.1324 27.0226C51.2693 26.7445 49.4923 26.0523 47.9319 24.997L46.9015 24.3044C45.743 23.5228 44.4303 22.6372 43.4611 22.0653C42.2543 21.3338 40.9417 20.9792 39.4452 20.9792C37.2247 20.9792 34.9688 21.7627 32.7891 22.5202L30.4386 23.3297C29.4243 23.6715 28.36 23.8415 27.2897 23.8329C24.4231 23.8329 21.6177 22.7449 18.9051 21.694L18.6322 21.5863C18.0739 21.3725 17.4587 21.3593 16.8917 21.549C16.3248 21.7386 15.8414 22.1194 15.5241 22.626L9.08713 32.8803C8.75941 33.3913 8.62722 34.0035 8.71489 34.6042C8.80256 35.205 9.10419 35.7538 9.56429 36.1499L24.0183 48.5374C24.6718 49.0963 25.3588 49.6291 26.0606 50.1193L37.5069 58.1326C37.9063 58.4125 38.357 58.6109 38.8332 58.7165C39.3094 58.8222 39.8017 58.833 40.282 58.7484C40.7624 58.6637 41.2213 58.4852 41.6327 58.2232C42.0441 57.9611 42.3998 57.6206 42.6795 57.221C42.9045 56.8978 42.9926 56.4987 42.9244 56.1109C42.8562 55.723 42.6374 55.3779 42.3156 55.1508L38.9123 52.7687C38.8234 52.7062 38.7484 52.6259 38.692 52.5329C38.6356 52.4399 38.5992 52.3362 38.5849 52.2284C38.5706 52.1206 38.5787 52.011 38.6089 51.9065C38.6391 51.802 38.6905 51.7049 38.7601 51.6213C38.886 51.4702 39.0642 51.372 39.2593 51.3462C39.4543 51.3204 39.6519 51.3689 39.8128 51.4821L47.2004 56.6529C47.7652 57.0483 48.464 57.2031 49.1429 57.0833C49.8219 56.9636 50.4255 56.579 50.8209 56.0142C51.2163 55.4494 51.3712 54.7506 51.2514 54.0717C51.1316 53.3927 50.747 52.7891 50.1822 52.3937L43.268 47.5553C43.1791 47.4927 43.1041 47.4124 43.0477 47.3194C42.9913 47.2264 42.9549 47.1227 42.9406 47.0149C42.9263 46.9071 42.9344 46.7975 42.9646 46.693C42.9948 46.5886 43.0462 46.4915 43.1158 46.4079C43.242 46.2571 43.4201 46.1591 43.6151 46.1334C43.81 46.1076 44.0075 46.1558 44.1685 46.2686L53.6968 52.9396C53.9765 53.1353 54.292 53.2741 54.6253 53.348C54.9586 53.4219 55.3032 53.4293 55.6394 53.37C55.9755 53.3107 56.2968 53.1858 56.5847 53.0023C56.8726 52.8189 57.1215 52.5805 57.3173 52.3009C57.5131 52.0212 57.6519 51.7057 57.7257 51.3724C57.7996 51.0391 57.8071 50.6945 57.7478 50.3584C57.6885 50.0222 57.5635 49.7009 57.3801 49.413C57.1966 49.1251 56.9583 48.8762 56.6786 48.6804L47.6405 42.3548C47.5507 42.2928 47.475 42.2127 47.4181 42.1196C47.3613 42.0266 47.3246 41.9226 47.3104 41.8145C47.2962 41.7064 47.3049 41.5965 47.3359 41.4919C47.3668 41.3873 47.4193 41.2904 47.4901 41.2074C47.6028 41.0729 47.7619 40.9857 47.9359 40.963C48.1099 40.9403 48.2861 40.9838 48.4295 41.0848L58.9307 48.4353C59.2105 48.6311 59.5261 48.7699 59.8595 48.8437C60.1929 48.9175 60.5376 48.9249 60.8739 48.8655C61.2102 48.8061 61.5315 48.6811 61.8194 48.4975C62.1074 48.314 62.3563 48.0755 62.5521 47.7957C62.7479 47.5159 62.8867 47.2003 62.9605 46.8669C63.0343 46.5335 63.0417 46.1888 62.9823 45.8525C62.923 45.5163 62.7979 45.195 62.6143 44.907C62.4308 44.6191 62.1923 44.3701 61.9125 44.1743Z" fill="#FFDC5D"/>
<path d="M37.2823 55.6428C37.1523 56.1385 36.898 56.5674 36.56 56.9072L34.696 58.7564C34.3545 59.1018 33.9284 59.3515 33.4602 59.4805C32.992 59.6095 32.4981 59.6134 32.028 59.4916C31.5533 59.3681 31.1197 59.1213 30.771 58.7764C30.4223 58.4314 30.1709 58.0005 30.0422 57.5272C29.9135 57.0539 29.9121 56.555 30.0382 56.081C30.1642 55.607 30.4131 55.1747 30.7599 54.8277L32.6239 52.9785C32.9654 52.6331 33.3915 52.3834 33.8597 52.2544C34.3279 52.1254 34.8218 52.1215 35.292 52.2433C36.0062 52.4309 36.6169 52.8942 36.99 53.5315C37.3632 54.1688 37.4683 54.9281 37.2823 55.6428ZM17.7058 46.5062L20.4963 43.7268C20.8154 43.4082 21.0523 43.0168 21.1867 42.5863C21.3211 42.1558 21.3489 41.6992 21.2678 41.2556C21.1868 40.812 20.9992 40.3947 20.7212 40.0396C20.4432 39.6845 20.0831 39.4022 19.672 39.217C19.1569 38.9854 18.5834 38.9163 18.028 39.0192C17.4727 39.122 16.9619 39.3918 16.5639 39.7926L13.7734 42.572C13.4544 42.8908 13.2175 43.2823 13.0833 43.7129C12.949 44.1434 12.9214 44.6002 13.0026 45.0438C13.0839 45.4874 13.2717 45.9047 13.5499 46.2597C13.828 46.6147 14.1883 46.8968 14.5996 47.0818C15.1145 47.3128 15.6876 47.3814 16.2425 47.2786C16.7974 47.1758 17.3078 46.9064 17.7058 46.5062ZM27.3678 46.6028C27.6411 46.3476 27.8603 46.0399 28.0122 45.6981C28.1641 45.3564 28.2456 44.9875 28.2518 44.6136C28.2581 44.2396 28.1889 43.8683 28.0485 43.5216C27.9081 43.175 27.6994 42.8602 27.4347 42.5959C27.17 42.3317 26.8547 42.1236 26.5078 41.9838C26.1609 41.8441 25.7894 41.7756 25.4155 41.7826C25.0416 41.7895 24.6729 41.8717 24.3314 42.0243C23.9899 42.1768 23.6827 42.3965 23.428 42.6704L17.8543 48.2366C17.5809 48.4919 17.3618 48.7995 17.2099 49.1413C17.058 49.4831 16.9765 49.8519 16.9702 50.2259C16.964 50.5998 17.0331 50.9712 17.1735 51.3178C17.3139 51.6644 17.5227 51.9793 17.7874 52.2435C18.0521 52.5077 18.3673 52.7159 18.7142 52.8556C19.0611 52.9953 19.4326 53.0638 19.8066 53.0568C20.1805 53.0499 20.5492 52.9677 20.8907 52.8152C21.2321 52.6626 21.5394 52.4429 21.7941 52.169L27.3678 46.6028ZM31.5452 52.1727C31.9211 51.7961 32.1812 51.3197 32.2947 50.7998C32.4083 50.28 32.3705 49.7385 32.1859 49.2394C32.0014 48.7404 31.6777 48.3046 31.2532 47.9838C30.8287 47.6629 30.3212 47.4704 29.7907 47.429C29.3901 47.3988 28.9878 47.4562 28.6117 47.5973C28.2356 47.7383 27.8947 47.9597 27.6128 48.2459L23.8903 51.9499C23.5138 52.3265 23.2532 52.8031 23.1393 53.3232C23.0255 53.8433 23.0631 54.3852 23.2477 54.8846C23.4324 55.384 23.7563 55.8201 24.1811 56.141C24.606 56.462 25.1139 56.6544 25.6448 56.6955C26.4896 56.7624 27.2675 56.4337 27.8226 55.8786L31.5452 52.1727ZM62.2821 44.4918L63.4462 43.4855L50.6112 23.3408L27.8301 27.0263C27.4678 27.0875 27.121 27.2194 26.8097 27.4146C26.4984 27.6098 26.2286 27.8644 26.0156 28.1639C25.8027 28.4633 25.6509 28.8018 25.5688 29.16C25.4867 29.5181 25.4759 29.889 25.5371 30.2513C26.7588 35.2549 36.6826 31.5379 41.0494 29.1354L62.2821 44.4918Z" fill="#EF9645"/>
<path d="M37.2823 53.7861C37.1523 54.2819 36.898 54.7108 36.56 55.0505L34.696 56.8997C34.3545 57.2451 33.9284 57.4948 33.4602 57.6239C32.992 57.7529 32.4981 57.7567 32.028 57.635C31.5533 57.5114 31.1197 57.2647 30.771 56.9197C30.4223 56.5748 30.1709 56.1438 30.0422 55.6705C29.9135 55.1972 29.9121 54.6984 30.0382 54.2243C30.1642 53.7503 30.4131 53.318 30.7599 52.9711L32.6239 51.1219C32.9654 50.7765 33.3915 50.5268 33.8597 50.3977C34.3279 50.2687 34.8218 50.2649 35.292 50.3866C36.0062 50.5742 36.6169 51.0375 36.99 51.6748C37.3632 52.3121 37.4683 53.0714 37.2823 53.7861ZM17.7058 44.6496L20.4963 41.8702C20.8154 41.5515 21.0523 41.1601 21.1867 40.7296C21.3211 40.2992 21.3489 39.8425 21.2678 39.3989C21.1868 38.9553 20.9992 38.538 20.7212 38.1829C20.4432 37.8278 20.0831 37.5456 19.672 37.3604C19.1568 37.1292 18.5834 37.0605 18.0282 37.1633C17.4729 37.2661 16.9622 37.5356 16.5639 37.9359L13.7734 40.7153C13.4544 41.0341 13.2175 41.4257 13.0833 41.8562C12.949 42.2868 12.9214 42.7435 13.0026 43.1871C13.0839 43.6307 13.2717 44.048 13.5499 44.403C13.828 44.758 14.1883 45.0401 14.5996 45.2251C15.1145 45.4561 15.6876 45.5248 16.2425 45.4219C16.7974 45.3191 17.3078 45.0497 17.7058 44.6496ZM27.3678 44.7461C27.6411 44.4909 27.8603 44.1832 28.0122 43.8415C28.1641 43.4997 28.2456 43.1308 28.2518 42.7569C28.2581 42.383 28.1889 42.0116 28.0485 41.6649C27.9081 41.3183 27.6994 41.0035 27.4347 40.7393C27.17 40.4751 26.8547 40.2669 26.5078 40.1272C26.1609 39.9874 25.7894 39.919 25.4155 39.9259C25.0416 39.9329 24.6729 40.0151 24.3314 40.1676C23.9899 40.3201 23.6827 40.5399 23.428 40.8137L17.8543 46.38C17.5809 46.6352 17.3618 46.9429 17.2099 47.2846C17.058 47.6264 16.9765 47.9952 16.9702 48.3692C16.964 48.7431 17.0331 49.1145 17.1735 49.4611C17.3139 49.8078 17.5227 50.1226 17.7874 50.3868C18.0521 50.651 18.3673 50.8592 18.7142 50.9989C19.0611 51.1387 19.4326 51.2071 19.8066 51.2002C20.1805 51.1932 20.5492 51.111 20.8907 50.9585C21.2321 50.806 21.5394 50.5862 21.7941 50.3124L27.3678 44.7461ZM31.5452 50.3161C31.9211 49.9394 32.1812 49.463 32.2947 48.9431C32.4083 48.4233 32.3705 47.8818 32.1859 47.3828C32.0014 46.8837 31.6777 46.448 31.2532 46.1271C30.8287 45.8063 30.3212 45.6137 29.7907 45.5723C29.3901 45.5421 28.9878 45.5995 28.6117 45.7406C28.2356 45.8817 27.8947 46.103 27.6128 46.3893L23.8903 50.0933C23.5138 50.4698 23.2532 50.9464 23.1393 51.4665C23.0255 51.9867 23.0631 52.5286 23.2477 53.028C23.4324 53.5274 23.7563 53.9634 24.1811 54.2844C24.606 54.6053 25.1139 54.7977 25.6448 54.8389C26.4896 54.9057 27.2675 54.5771 27.8226 54.0219L31.5452 50.3161ZM71.569 36.4729C72.0606 36.048 72.3819 35.4597 72.4737 34.8165C72.5655 34.1732 72.4216 33.5185 72.0685 32.9731L72.0629 32.9638L65.6259 20.8566C65.286 20.3135 64.7679 19.9054 64.1603 19.7022C63.5527 19.499 62.8933 19.5133 62.2951 19.7426C58.5966 21.1741 54.5454 22.8191 50.613 21.4823L48.5744 20.7823C44.9577 19.5291 41.0253 18.0605 37.4345 20.2365C36.1442 20.9959 34.2077 22.3401 32.9581 23.17C31.4144 24.201 29.6644 24.8828 27.8301 25.1678C27.4672 25.2278 27.1198 25.359 26.8079 25.5539C26.4959 25.7487 26.2256 26.0033 26.0125 26.3031C25.7994 26.6029 25.6476 26.9418 25.5661 27.3004C25.4845 27.6591 25.4746 28.0303 25.5371 28.3927C26.6752 33.0567 35.3774 30.0786 40.0895 27.7076C40.3837 27.56 40.7127 27.4959 41.0408 27.5224C41.3688 27.5489 41.6833 27.665 41.9499 27.858L63.4573 43.4836L71.569 36.4729Z" fill="#FFCC4D"/>
</svg>
