<svg xmlns="http://www.w3.org/2000/svg" viewBox="0 0 461.78 222.08"><defs><style>.cls-1{fill:#fbb03b;}</style></defs><g id="Capa_2" data-name="Capa 2"><g id="Capa_1-2" data-name="Capa 1"><path d="M288.14,25.06h-6.36v6h-3v5.08h3V49.1c0,2.52.7,4.38,2.09,5.53a8.92,8.92,0,0,0,5.83,1.7h4.7V51.17h-3.77a3.12,3.12,0,0,1-2-.48,2,2,0,0,1-.51-1.59V36.17h6.26V31.09h-6.26Z"/><path d="M318.08,31.94a11.84,11.84,0,0,0-5.49-1.25,12.65,12.65,0,0,0-4.74.88,9.81,9.81,0,0,0-2.75,1.65V22.77h-6.31V56.33h6.31v-14a6.34,6.34,0,0,1,1.6-4.65A6,6,0,0,1,311.1,36a5.89,5.89,0,0,1,4.37,1.59,6.36,6.36,0,0,1,1.58,4.65v14h6.27V41.53a11.73,11.73,0,0,0-1.4-5.88A9.21,9.21,0,0,0,318.08,31.94Z"/><path d="M352.5,36.64a11.36,11.36,0,0,0-4.64-4.39,14.29,14.29,0,0,0-6.72-1.56,14.7,14.7,0,0,0-6.93,1.6,11.57,11.57,0,0,0-4.73,4.57,13.59,13.59,0,0,0-1.68,6.83,13.31,13.31,0,0,0,1.73,6.83,12,12,0,0,0,4.77,4.59,14.39,14.39,0,0,0,6.84,1.62A13.49,13.49,0,0,0,349,54.5a11.52,11.52,0,0,0,4.41-5.72l.23-.65h-6.74l-.14.26c-1.1,2.1-2.95,3.13-5.64,3.13a7,7,0,0,1-4.72-1.64,5.92,5.92,0,0,1-2.06-3.81h19.53l.07-.41a15,15,0,0,0,.2-2.54A12.6,12.6,0,0,0,352.5,36.64Zm-11.59-.73a7.33,7.33,0,0,1,4.78,1.56,5,5,0,0,1,1.9,3.57H334.43a6.17,6.17,0,0,1,2.08-3.6A6.62,6.62,0,0,1,340.91,35.91Z"/><path d="M311.79,70.57a22.46,22.46,0,0,0-3.16-1.86A21.8,21.8,0,0,0,299,66.65a22.44,22.44,0,0,0-11.12,2.84,21,21,0,0,0-8,8A23.2,23.2,0,0,0,277,89.15a23.85,23.85,0,0,0,2.91,11.77,21.27,21.27,0,0,0,8,8.16A21.94,21.94,0,0,0,299,112a21.09,21.09,0,0,0,9.58-2.14,23.06,23.06,0,0,0,3.21-2V110c0,3.34-.87,5.77-2.66,7.44a10.17,10.17,0,0,1-7.27,2.53,13.39,13.39,0,0,1-6.85-1.66,7.1,7.1,0,0,1-3.41-4l-.44-1.37H278.79l.26,2.2A15.91,15.91,0,0,0,286.4,127c4.12,2.75,9.32,4.15,15.46,4.15a25.63,25.63,0,0,0,12.08-2.7,19.41,19.41,0,0,0,7.94-7.57A21.63,21.63,0,0,0,324.61,110V67.31H311.79Zm-1.54,12.52a12,12,0,0,1,1.54,6.2,12.15,12.15,0,0,1-1.55,6.25,10.18,10.18,0,0,1-4,4,11,11,0,0,1-5.4,1.36,10.78,10.78,0,0,1-5.34-1.39,10.36,10.36,0,0,1-4-4,12.35,12.35,0,0,1-1.55-6.29A11.87,11.87,0,0,1,291.45,83a10.18,10.18,0,0,1,4-3.86,11.24,11.24,0,0,1,5.41-1.34,11,11,0,0,1,5.4,1.37A10.4,10.4,0,0,1,310.25,83.09Z"/><path d="M347.63,68.6A16.77,16.77,0,0,0,345.39,70V67.31H332.65v44h12.74V88.27c0-3.48.69-5.89,2-7.14s3.58-1.95,6.5-1.95h4.21V66.65h-2A18,18,0,0,0,347.63,68.6Z"/><path d="M394.61,70.59a23,23,0,0,0-3.15-1.87,21.54,21.54,0,0,0-9.64-2.07,22.5,22.5,0,0,0-11.13,2.84,21,21,0,0,0-8,8,23.2,23.2,0,0,0-2.93,11.68,23.86,23.86,0,0,0,2.92,11.77,21.35,21.35,0,0,0,7.95,8.16,22,22,0,0,0,24-1.12v3.39h12.82v-44H394.61Zm-1.54,12.5a12,12,0,0,1,1.54,6.2,12.15,12.15,0,0,1-1.55,6.25,10.18,10.18,0,0,1-4,4,11,11,0,0,1-5.4,1.36,10.84,10.84,0,0,1-5.35-1.39,10.27,10.27,0,0,1-4-4,12.35,12.35,0,0,1-1.55-6.29A11.78,11.78,0,0,1,374.27,83a10.18,10.18,0,0,1,4-3.86,11.24,11.24,0,0,1,5.41-1.34,11,11,0,0,1,5.4,1.37A10.4,10.4,0,0,1,393.07,83.09Z"/><path d="M447.37,53.55v17a20.85,20.85,0,0,0-3.72-2,23,23,0,0,0-9-1.87,22.6,22.6,0,0,0-11.2,2.84,20.93,20.93,0,0,0-8,8,23.2,23.2,0,0,0-2.93,11.68,23.75,23.75,0,0,0,2.92,11.77,21.17,21.17,0,0,0,8,8.16A22,22,0,0,0,434.59,112a20.68,20.68,0,0,0,12.78-4v3.34h12.82V53.55Zm0,35.74a12.24,12.24,0,0,1-1.54,6.25,10.21,10.21,0,0,1-4,4,10.93,10.93,0,0,1-5.39,1.36,10.79,10.79,0,0,1-5.35-1.39,10.36,10.36,0,0,1-4-4,12.45,12.45,0,0,1-1.55-6.29A11.78,11.78,0,0,1,427,83a10.12,10.12,0,0,1,4-3.86,11.18,11.18,0,0,1,5.41-1.34,10.94,10.94,0,0,1,5.39,1.37,10.26,10.26,0,0,1,4,3.93A11.91,11.91,0,0,1,447.37,89.29Z"/><path d="M304.89,158.82a56.87,56.87,0,0,0-7.22-2.25c-2.08-.57-3.66-1-4.7-1.41a6.3,6.3,0,0,1-2.12-1.19,1.25,1.25,0,0,1-.47-1,1.53,1.53,0,0,1,.83-1.39,7.12,7.12,0,0,1,3.81-.81,6.45,6.45,0,0,1,4,1.07,3.4,3.4,0,0,1,1.37,2.57l.15,1.8h12l-.1-2.07A13.17,13.17,0,0,0,307.28,144c-3.06-2.39-7.09-3.61-12-3.61a22.87,22.87,0,0,0-8.67,1.56,14.13,14.13,0,0,0-6.12,4.5,10.72,10.72,0,0,0-2.25,6.59,10.26,10.26,0,0,0,2.54,7.16,14.63,14.63,0,0,0,5.54,3.8,68.61,68.61,0,0,0,7.38,2.28,40.82,40.82,0,0,1,6.3,2.09c.91.44,1,.89,1,1.32s-.12,1-1,1.55a7.86,7.86,0,0,1-4.21.91,7,7,0,0,1-4.27-1.2,3.4,3.4,0,0,1-1.58-2.51l-.17-1.79H277.55l.09,2.05a12.25,12.25,0,0,0,2.69,7.2,16.36,16.36,0,0,0,6.56,4.89h0a24.68,24.68,0,0,0,17.74.18,14.09,14.09,0,0,0,6-4.54,11.13,11.13,0,0,0,2.23-6.85,10.2,10.2,0,0,0-2.58-7A15.17,15.17,0,0,0,304.89,158.82Z"/><path d="M331.81,131.79H319.7V141h-4.62v10.18h4.62v18.51c0,4.22,1.22,7.37,3.62,9.37s5.54,2.87,9.64,2.87h8.37V171.6h-6.94c-1.7,0-2.17-.37-2.22-.41a2.25,2.25,0,0,1-.36-1.51V151.17h9.52V141h-9.52Z"/><path d="M375.93,143a25.1,25.1,0,0,0-22.13,0,19.74,19.74,0,0,0-7.95,7.45,21,21,0,0,0-2.92,11,21.4,21.4,0,0,0,2.84,11,19.69,19.69,0,0,0,7.8,7.45,23.07,23.07,0,0,0,10.94,2.61,24.21,24.21,0,0,0,11.17-2.6,20.32,20.32,0,0,0,8.13-7.46,20.71,20.71,0,0,0,3-11,21.07,21.07,0,0,0-2.91-11A19.7,19.7,0,0,0,375.93,143Zm-1.38,18.47a11.07,11.07,0,0,1-1.42,5.83,9,9,0,0,1-3.66,3.5,10.58,10.58,0,0,1-5,1.19,9,9,0,0,1-6.74-2.68c-1.79-1.8-2.66-4.36-2.66-7.84a11.88,11.88,0,0,1,1.31-5.85,8.27,8.27,0,0,1,3.44-3.42,10.09,10.09,0,0,1,4.87-1.19,10.36,10.36,0,0,1,4.91,1.19,8.71,8.71,0,0,1,3.55,3.45A11.44,11.44,0,0,1,374.55,161.42Z"/><path d="M403.52,142.19h0a15.72,15.72,0,0,0-1.83,1.16V141h-12v40.93h12V160.48c0-3.18.62-5.36,1.83-6.48s3.23-1.76,5.87-1.76h4V140.38h-2A16.69,16.69,0,0,0,403.52,142.19Z"/><polygon points="449.05 140.99 438.97 165.84 429.26 140.99 415.93 140.99 432.17 179.33 423.34 199.31 436.02 199.31 461.78 140.99 449.05 140.99"/><path d="M35.34,126.4l76.6,44.53a15.89,15.89,0,0,0,16,0l76.59-44.53v42.36A11.72,11.72,0,0,1,198.6,179l-73,41.58a11.73,11.73,0,0,1-11.44.1L41.46,180.89a11.75,11.75,0,0,1-6.12-10.3Z"/><path class="cls-1" d="M229.37,177.65V111.82l-12.79,7.87v58a11.81,11.81,0,1,0,12.79,0Z"/><path d="M113.77,154,5,89.57c-6.62-4.39-6.65-18-.05-22.47L113.72,1.9a11.14,11.14,0,0,1,12.44,0L235,67.1c6.59,4.43,6.56,18.08-.06,22.47L126.1,154A11.15,11.15,0,0,1,113.77,154Z"/></g></g></svg>