<svg width="120" height="117" viewBox="0 0 120 117" fill="none" xmlns="http://www.w3.org/2000/svg">
<path d="M42.971 71.3481L42.9315 71.3456L42.971 71.3481Z" fill="#324C8E"/>
<path d="M42.9289 71.3454L25.1153 70.1797L26.9634 67.5298L42.5401 62.9763L42.9289 71.3454Z" fill="#324C8E"/>
<path d="M42.9325 71.4088L42.9287 71.3452L42.9325 71.4088Z" fill="#324C8E"/>
<path d="M37.0563 51.7787L51.5262 99.5878C52.206 101.827 54.9688 102.647 56.7532 101.115L117.639 49.1583C119.623 47.4582 118.888 44.235 116.376 43.5406L32.8443 20.602C30.3776 19.9341 28.1199 22.244 28.8653 24.6837L37.0563 51.7787Z" fill="#4E64EE"/>
<path d="M104.662 49.1107L41.134 65.2155L25.4 70.1432C24.2513 70.446 23.3728 69.1035 24.1144 68.1786L37.1331 52.027L104.662 49.1107Z" fill="#3554B7"/>
</svg>
