<svg width="195" height="182" viewBox="0 0 195 182" fill="none" xmlns="http://www.w3.org/2000/svg">
<g clip-path="url(#clip0_2028_464)">
<path d="M91.9609 1.51836L86.0245 4.77309L12.8872 44.872L6.95078 48.1267C4.07027 49.7103 1.93248 52.3773 1.00642 55.5427C0.0803622 58.7081 0.441664 62.1133 2.01106 65.0114L56.4747 165.315C58.0506 168.21 60.7047 170.358 63.8548 171.288C67.005 172.219 70.3938 171.856 73.2778 170.279L73.2931 170.27L158.273 123.679L158.288 123.67C161.168 122.087 163.306 119.42 164.232 116.255C165.158 113.089 164.797 109.684 163.228 106.786L108.764 6.48209C107.188 3.5876 104.534 1.43943 101.384 0.508871C98.2337 -0.421688 94.8449 -0.058641 91.9609 1.51836Z" fill="#F2F2F2"/>
<path d="M93.6685 4.66316L86.6373 8.51816L15.6895 47.4167L8.65837 51.2716C6.60709 52.3993 5.08471 54.2985 4.42524 56.5527C3.76576 58.8068 4.02306 61.2318 5.14066 63.2955L59.6043 163.599C60.7265 165.661 62.6166 167.19 64.8599 167.853C67.1031 168.516 69.5164 168.257 71.5702 167.134L71.5855 167.126L156.565 120.534L156.58 120.526C158.632 119.398 160.154 117.499 160.813 115.245C161.473 112.99 161.216 110.565 160.098 108.502L105.634 8.19799C104.512 6.13676 102.622 4.607 100.379 3.94432C98.1356 3.28164 95.7223 3.54016 93.6685 4.66316Z" fill="white"/>
<path d="M94.8408 35.7975L63.1468 53.1744C62.6667 53.4376 62.1021 53.4984 61.5774 53.3434C61.0526 53.1884 60.6106 52.8303 60.3486 52.3478C60.0867 51.8653 60.0261 51.298 60.1804 50.7707C60.3347 50.2434 60.6911 49.7993 61.1712 49.536L92.8653 32.1592C93.3454 31.8959 93.91 31.8351 94.4347 31.9901C94.9595 32.1452 95.4015 32.5033 95.6635 32.9858C95.9254 33.4682 95.9859 34.0355 95.8317 34.5628C95.6774 35.0901 95.321 35.5343 94.8408 35.7975Z" fill="#F2F2F2"/>
<path d="M105.642 37.8428L66.4805 59.314C66.0004 59.5773 65.4358 59.6381 64.9111 59.4831C64.3863 59.3281 63.9443 58.9699 63.6824 58.4875C63.4204 58.005 63.3599 57.4377 63.5142 56.9104C63.6684 56.3831 64.0248 55.939 64.505 55.6757L103.667 34.2045C103.905 34.0741 104.166 33.9921 104.435 33.9631C104.704 33.9341 104.976 33.9587 105.236 34.0354C105.496 34.1122 105.738 34.2396 105.949 34.4104C106.16 34.5813 106.335 34.7922 106.465 35.031C106.595 35.2699 106.676 35.5322 106.705 35.8028C106.734 36.0734 106.71 36.347 106.633 36.6081C106.557 36.8692 106.43 37.1126 106.26 37.3245C106.09 37.5363 105.88 37.7125 105.642 37.8428Z" fill="#F2F2F2"/>
<path d="M50.1171 45.941L20.897 61.9615C20.667 62.0877 20.4962 62.3005 20.4223 62.5531C20.3484 62.8058 20.3774 63.0776 20.5029 63.3088L32.9455 86.224C33.0711 86.4551 33.2828 86.6267 33.5343 86.7009C33.7857 86.7752 34.0562 86.7461 34.2862 86.62L63.5063 70.5996C63.7363 70.4734 63.9071 70.2606 63.981 70.0079C64.0549 69.7553 64.0259 69.4835 63.9004 69.2523L51.4578 46.3371C51.3322 46.106 51.1205 45.9344 50.869 45.8602C50.6176 45.7859 50.3471 45.815 50.1171 45.941Z" fill="#F2F2F2"/>
<path d="M110.567 64.8732L67.5776 88.4427C67.3398 88.5731 67.0789 88.6551 66.8096 88.6841C66.5403 88.7131 66.268 88.6885 66.0081 88.6118C65.7483 88.535 65.5061 88.4076 65.2952 88.2368C65.0844 88.0659 64.9091 87.8551 64.7794 87.6162C64.6497 87.3773 64.5681 87.115 64.5392 86.8444C64.5103 86.5738 64.5348 86.3002 64.6112 86.0391C64.6876 85.778 64.8144 85.5346 64.9844 85.3227C65.1544 85.1109 65.3643 84.9348 65.602 84.8044L108.591 61.2349C109.071 60.9716 109.636 60.9108 110.16 61.0658C110.685 61.2208 111.127 61.579 111.389 62.0615C111.651 62.5439 111.712 63.1112 111.557 63.6385C111.403 64.1658 111.047 64.6099 110.567 64.8732Z" fill="#F2F2F2"/>
<path d="M121.368 66.9185L70.9113 94.5824C70.4312 94.8457 69.8666 94.9065 69.3419 94.7514C68.8171 94.5964 68.3751 94.2383 68.1132 93.7558C67.8512 93.2734 67.7907 92.7061 67.9449 92.1788C68.0992 91.6515 68.4556 91.2073 68.9358 90.9441L119.393 63.2802C119.873 63.0169 120.437 62.9561 120.962 63.1111C121.487 63.2661 121.929 63.6243 122.191 64.1067C122.453 64.5892 122.513 65.1565 122.359 65.6838C122.205 66.2111 121.848 66.6552 121.368 66.9185Z" fill="#F2F2F2"/>
<path d="M51.2054 107.745C56.0376 107.745 59.9549 103.809 59.9549 98.9535C59.9549 94.0979 56.0376 90.1616 51.2054 90.1616C46.3732 90.1616 42.4559 94.0979 42.4559 98.9535C42.4559 103.809 46.3732 107.745 51.2054 107.745Z" fill="#F2F2F2"/>
<path d="M182.116 42.8483H85.275C81.9916 42.852 78.8437 44.1643 76.522 46.4973C74.2003 48.8303 72.8943 51.9934 72.8906 55.2927V169.556C72.8943 172.855 74.2003 176.018 76.522 178.351C78.8437 180.684 81.9916 181.996 85.275 182H182.116C185.399 181.996 188.547 180.684 190.869 178.351C193.19 176.018 194.496 172.855 194.5 169.556V55.2927C194.496 51.9934 193.19 48.8303 190.869 46.4973C188.547 44.1643 185.399 42.852 182.116 42.8483Z" fill="#E6E6E6"/>
<path d="M182.116 46.4308H85.2749C82.9367 46.4334 80.695 47.3679 79.0417 49.0293C77.3883 50.6907 76.4583 52.9432 76.4557 55.2928V169.556C76.4583 171.905 77.3883 174.158 79.0417 175.819C80.695 177.48 82.9367 178.415 85.2749 178.418H182.116C184.454 178.415 186.696 177.48 188.349 175.819C190.002 174.158 190.932 171.905 190.935 169.556V55.2928C190.932 52.9432 190.002 50.6907 188.349 49.0293C186.696 47.368 184.454 46.4334 182.116 46.4308Z" fill="white"/>
<path d="M168.305 74.3257H132.2C131.653 74.3257 131.128 74.1074 130.741 73.7187C130.355 73.3301 130.137 72.803 130.137 72.2534C130.137 71.7037 130.355 71.1766 130.741 70.788C131.128 70.3994 131.653 70.181 132.2 70.181H168.305C168.576 70.1807 168.844 70.2341 169.095 70.3381C169.345 70.4421 169.573 70.5947 169.764 70.7872C169.956 70.9797 170.108 71.2082 170.212 71.4598C170.316 71.7114 170.369 71.981 170.369 72.2534C170.369 72.5257 170.316 72.7954 170.212 73.0469C170.108 73.2985 169.956 73.5271 169.764 73.7195C169.573 73.912 169.345 74.0646 169.095 74.1686C168.844 74.2726 168.576 74.326 168.305 74.3257Z" fill="#F9B03C"/>
<path d="M176.812 81.3198H132.2C131.653 81.3198 131.128 81.1015 130.741 80.7129C130.355 80.3242 130.137 79.7971 130.137 79.2475C130.137 78.6979 130.355 78.1708 130.741 77.7821C131.128 77.3935 131.653 77.1752 132.2 77.1752H176.812C177.359 77.1752 177.883 77.3935 178.27 77.7821C178.657 78.1708 178.874 78.6979 178.874 79.2475C178.874 79.7971 178.657 80.3242 178.27 80.7129C177.883 81.1015 177.359 81.3198 176.812 81.3198Z" fill="#F9B03C"/>
<path d="M124.21 61.705H90.9231C90.661 61.705 90.4097 61.8097 90.2244 61.9959C90.0391 62.1821 89.935 62.4346 89.9349 62.6979V88.8022C89.935 89.0655 90.0391 89.318 90.2244 89.5042C90.4097 89.6904 90.661 89.7951 90.9231 89.7951H124.21C124.472 89.7951 124.723 89.6904 124.908 89.5042C125.094 89.318 125.198 89.0655 125.198 88.8022V62.6979C125.198 62.4346 125.094 62.1821 124.908 61.9959C124.723 61.8097 124.472 61.705 124.21 61.705Z" fill="#E6E6E6"/>
<path d="M100.054 77.7348C100.068 79.9385 99.2593 82.0674 97.7883 83.7019C96.3328 85.307 94.166 86.3714 91.9793 85.931C89.9659 85.5255 88.3297 83.7572 88.5338 81.618C88.5677 81.1546 88.7017 80.7042 88.9266 80.2983C89.1514 79.8923 89.4616 79.5405 89.8357 79.2673C90.2097 78.9942 90.6385 78.8063 91.0922 78.7168C91.5459 78.6272 92.0135 78.6382 92.4626 78.7489C94.3752 79.2477 95.1374 82.0177 93.5435 83.3179C93.1611 83.6298 92.6116 83.0842 92.9976 82.7693C94.0513 81.9098 93.7258 80.0295 92.454 79.5579C90.9734 79.0089 89.4046 80.1897 89.2981 81.7108C89.1719 83.5143 90.5468 84.8724 92.2329 85.1921C94.0568 85.538 95.8653 84.6 97.1012 83.3052C98.5176 81.8016 99.2992 79.8051 99.2819 77.7348C99.2853 77.6342 99.3275 77.539 99.3995 77.4691C99.4715 77.3992 99.5677 77.3601 99.6679 77.3601C99.768 77.3601 99.8642 77.3992 99.9362 77.4691C100.008 77.539 100.05 77.6342 100.054 77.7348Z" fill="#2F2E41"/>
<path d="M107.592 82.6664C115.199 82.6664 121.365 76.4703 121.365 68.8271C121.365 61.1839 115.199 54.9878 107.592 54.9878C99.986 54.9878 93.8198 61.1839 93.8198 68.8271C93.8198 76.4703 99.986 82.6664 107.592 82.6664Z" fill="#F9B03C"/>
<path d="M106.888 74.7321L106.873 74.215C107.831 74.1882 108.675 74.1278 109.309 73.6622C109.489 73.5227 109.637 73.3459 109.743 73.1438C109.848 72.9418 109.91 72.7192 109.922 72.4912C109.933 72.3519 109.912 72.212 109.861 72.0821C109.809 71.9523 109.729 71.8362 109.625 71.7427C109.204 71.3854 108.527 71.5011 108.033 71.7286L107.607 71.9248L108.424 65.9281L108.934 65.9983L108.239 71.0993C108.91 70.9011 109.532 70.9864 109.958 71.3478C110.121 71.4912 110.249 71.6707 110.332 71.8722C110.415 72.0737 110.451 72.2918 110.436 72.5094C110.421 72.8157 110.34 73.1149 110.198 73.3862C110.055 73.6575 109.856 73.8943 109.613 74.0799C108.798 74.6784 107.739 74.7082 106.888 74.7321Z" fill="#2F2E41"/>
<path d="M114.227 66.4382H111.455V66.9554H114.227V66.4382Z" fill="#2F2E41"/>
<path d="M105.478 66.4382H102.706V66.9554H105.478V66.4382Z" fill="#2F2E41"/>
<path d="M99.9633 89.7952C100.996 89.137 102.111 88.6213 103.28 88.2618C103.169 87.8633 103.171 87.4414 103.286 87.0439C103.441 86.5417 103.753 86.1034 104.177 85.7944C104.6 85.4854 105.112 85.3223 105.635 85.3294H108.991C109.515 85.3227 110.027 85.4862 110.451 85.7956C110.876 86.1049 111.189 86.5437 111.345 87.0465C111.46 87.4431 111.462 87.8642 111.35 88.2618C112.519 88.6217 113.635 89.1375 114.668 89.7952H99.9633Z" fill="#2F2E41"/>
<path d="M123.368 63.6909C123.117 63.3856 122.808 63.1333 122.46 62.9488C122.154 62.7883 121.814 62.7041 121.469 62.7031C120.995 62.709 120.535 62.8646 120.154 63.1479C119.107 63.8926 118.381 65.4984 118.381 67.3577C118.381 69.6901 119.524 71.6243 121.008 71.9605C121.16 71.9946 121.314 72.0119 121.469 72.0122C123.17 72.0122 124.557 69.9254 124.557 67.3577C124.557 65.8682 124.091 64.5417 123.368 63.6909Z" fill="#3F3D56"/>
<path d="M95.0817 63.0367H95.0792C94.7351 62.8221 94.339 62.7067 93.934 62.7031C93.5889 62.7041 93.2491 62.7883 92.9432 62.9488C92.5946 63.1333 92.2858 63.3856 92.0349 63.6909L92.0322 63.6935C91.3117 64.5443 90.8459 65.8708 90.8459 67.3577C90.8459 69.3643 91.69 71.0761 92.8737 71.7304C93.1978 71.9128 93.5626 72.0098 93.934 72.0122C94.0166 72.0122 94.0991 72.007 94.181 71.9967H94.1835C95.7688 71.8053 97.022 69.7987 97.022 67.3577C97.022 65.4028 96.2166 63.7245 95.0817 63.0367Z" fill="#3F3D56"/>
<path d="M93.0667 71.2855C93.128 71.2854 93.1884 71.2707 93.2429 71.2426C93.2974 71.2144 93.3444 71.1737 93.3802 71.1237C93.4159 71.0737 93.4393 71.0158 93.4484 70.9549C93.4575 70.894 93.4521 70.8318 93.4325 70.7735C92.6948 68.569 92.4729 66.2232 92.784 63.9186C93.0951 61.6139 93.9309 59.4123 95.2265 57.485C96.522 55.5576 98.2424 53.9565 100.254 52.8059C102.265 51.6553 104.514 50.9862 106.824 50.8507C109.135 50.7153 111.446 51.117 113.577 52.0248C115.708 52.9325 117.602 54.3218 119.111 56.0847C120.621 57.8475 121.706 59.9365 122.282 62.1892C122.858 64.4418 122.909 66.7976 122.431 69.0733C122.41 69.174 122.43 69.279 122.485 69.3652C122.541 69.4514 122.629 69.5117 122.729 69.5329C122.829 69.5542 122.934 69.5345 123.02 69.4784C123.105 69.4222 123.165 69.3341 123.187 69.2334C123.689 66.8408 123.636 64.3639 123.03 61.9953C122.425 59.6268 121.285 57.4304 119.697 55.5768C118.11 53.7232 116.119 52.2624 113.878 51.308C111.638 50.3536 109.208 49.9312 106.779 50.0737C104.35 50.2161 101.986 50.9197 99.8707 52.1296C97.7559 53.3395 95.9472 55.0231 94.5853 57.0496C93.2233 59.0762 92.3448 61.391 92.018 63.8143C91.6912 66.2375 91.9249 68.7038 92.701 71.0215C92.7268 71.0984 92.776 71.1652 92.8416 71.2126C92.9072 71.2599 92.9859 71.2854 93.0667 71.2855Z" fill="#3F3D56"/>
<path d="M114.511 59.8605C115.056 60.6085 114.787 61.6166 114.213 62.2615C113.465 63.1008 112.273 63.1537 111.237 62.9979C110.076 62.8232 108.843 62.2763 107.667 62.6448C106.665 62.9589 105.95 63.8726 104.908 64.102C103.985 64.3055 102.88 64.0362 102.557 63.047C102.401 62.5716 103.146 62.3679 103.301 62.8407C103.511 63.4807 104.415 63.4679 104.933 63.2907C105.763 63.0066 106.403 62.3156 107.22 61.9855C108.182 61.5964 109.226 61.772 110.205 61.9937C111.129 62.2027 112.192 62.5125 113.111 62.1222C113.792 61.8333 114.334 60.9236 113.844 60.252C113.55 59.8489 114.22 59.4614 114.511 59.8605Z" fill="#2F2E41"/>
<path d="M168.25 107.418H119.279C119.008 107.418 118.74 107.364 118.489 107.26C118.239 107.156 118.012 107.003 117.82 106.811C117.629 106.619 117.477 106.39 117.373 106.139C117.27 105.887 117.216 105.618 117.216 105.346C117.216 105.074 117.27 104.804 117.373 104.553C117.477 104.301 117.629 104.073 117.82 103.88C118.012 103.688 118.239 103.535 118.489 103.431C118.74 103.327 119.008 103.273 119.279 103.273H168.25C168.797 103.274 169.321 103.493 169.707 103.881C170.093 104.27 170.31 104.796 170.31 105.346C170.31 105.895 170.093 106.422 169.707 106.81C169.321 107.199 168.797 107.417 168.25 107.418Z" fill="#E6E6E6"/>
<path d="M176.757 114.412H119.279C119.007 114.412 118.739 114.359 118.489 114.255C118.238 114.151 118.01 113.998 117.819 113.806C117.627 113.614 117.475 113.385 117.371 113.133C117.267 112.882 117.214 112.612 117.214 112.34C117.214 112.067 117.267 111.798 117.371 111.546C117.475 111.295 117.627 111.066 117.819 110.874C118.01 110.681 118.238 110.529 118.489 110.425C118.739 110.321 119.007 110.267 119.279 110.267H176.757C177.028 110.267 177.297 110.321 177.547 110.425C177.798 110.529 178.025 110.681 178.217 110.874C178.409 111.066 178.561 111.295 178.665 111.546C178.769 111.798 178.822 112.067 178.822 112.34C178.822 112.612 178.769 112.882 178.665 113.133C178.561 113.385 178.409 113.614 178.217 113.806C178.025 113.998 177.798 114.151 177.547 114.255C177.297 114.359 177.028 114.412 176.757 114.412Z" fill="#E6E6E6"/>
<path d="M168.25 132.556H119.279C118.732 132.556 118.207 132.338 117.82 131.949C117.433 131.56 117.216 131.033 117.216 130.484C117.216 129.934 117.433 129.407 117.82 129.018C118.207 128.63 118.732 128.411 119.279 128.411H168.25C168.797 128.411 169.322 128.63 169.708 129.018C170.095 129.407 170.313 129.934 170.313 130.484C170.313 131.033 170.095 131.56 169.708 131.949C169.322 132.338 168.797 132.556 168.25 132.556Z" fill="#E6E6E6"/>
<path d="M176.757 139.55H119.279C118.732 139.55 118.207 139.332 117.82 138.943C117.433 138.555 117.216 138.027 117.216 137.478C117.216 136.928 117.433 136.401 117.82 136.012C118.207 135.624 118.732 135.406 119.279 135.406H176.757C177.304 135.406 177.829 135.624 178.216 136.012C178.602 136.401 178.82 136.928 178.82 137.478C178.82 138.027 178.602 138.555 178.216 138.943C177.829 139.332 177.304 139.55 176.757 139.55Z" fill="#E6E6E6"/>
<path d="M99.8964 117.557C104.729 117.557 108.646 113.621 108.646 108.765C108.646 103.909 104.729 99.973 99.8964 99.973C95.0642 99.973 91.147 103.909 91.147 108.765C91.147 113.621 95.0642 117.557 99.8964 117.557Z" fill="#E6E6E6"/>
<path d="M99.8964 142.898C104.729 142.898 108.646 138.962 108.646 134.106C108.646 129.251 104.729 125.314 99.8964 125.314C95.0642 125.314 91.147 129.251 91.147 134.106C91.147 138.962 95.0642 142.898 99.8964 142.898Z" fill="#E6E6E6"/>
<path d="M168.25 157.897H119.279C118.732 157.897 118.207 157.679 117.82 157.291C117.433 156.902 117.216 156.375 117.216 155.825C117.216 155.276 117.433 154.748 117.82 154.36C118.207 153.971 118.732 153.753 119.279 153.753H168.25C168.797 153.753 169.322 153.971 169.708 154.36C170.095 154.748 170.313 155.276 170.313 155.825C170.313 156.375 170.095 156.902 169.708 157.291C169.322 157.679 168.797 157.897 168.25 157.897Z" fill="#E6E6E6"/>
<path d="M176.757 164.892H119.279C118.732 164.892 118.207 164.673 117.82 164.285C117.433 163.896 117.216 163.369 117.216 162.819C117.216 162.27 117.433 161.743 117.82 161.354C118.207 160.965 118.732 160.747 119.279 160.747H176.757C177.304 160.747 177.829 160.965 178.216 161.354C178.602 161.743 178.82 162.27 178.82 162.819C178.82 163.369 178.602 163.896 178.216 164.285C177.829 164.673 177.304 164.892 176.757 164.892Z" fill="#E6E6E6"/>
<path d="M99.8964 168.24C104.729 168.24 108.646 164.303 108.646 159.448C108.646 154.592 104.729 150.656 99.8964 150.656C95.0642 150.656 91.147 154.592 91.147 159.448C91.147 164.303 95.0642 168.24 99.8964 168.24Z" fill="#E6E6E6"/>
</g>
<defs>
<clipPath id="clip0_2028_464">
<rect width="194" height="182" fill="white" transform="translate(0.5)"/>
</clipPath>
</defs>
</svg>
