<svg width="64" height="64" viewBox="0 0 64 64" fill="none" xmlns="http://www.w3.org/2000/svg">
<path d="M31.7169 46.2765C31.7169 46.2765 27.7456 40.3317 25.1178 38.2078C23.023 35.5435 17.172 31.5202 17.172 31.5202C15.7755 30.1106 13.4594 30.0032 12.0941 31.3843C10.7319 32.7686 9.62218 35.7015 8.43764 38.625C6.96632 42.2469 4.46009 51.7537 2.92643 56.8042C2.6677 57.6638 4.53802 55.3819 4.49438 56.1404C4.46321 56.7315 4.57855 57.3857 4.72506 57.9767L4.26994 58.4792L4.91832 58.691C4.99625 58.9501 5.07418 59.1777 5.13029 59.3547L5.62592 58.8932C6.20884 59.0418 6.8541 59.1587 7.4339 59.1271C8.18203 59.0829 5.9283 60.9823 6.77929 60.7168C11.7606 59.1587 21.1402 56.6208 24.7094 55.1291C27.5897 53.9249 30.4887 52.803 31.8509 51.4187C33.2194 50.0439 33.1165 47.6956 31.7169 46.2765Z" fill="#D99E82"/>
<path d="M10.3733 59.6013C10.3733 59.6013 3.9519 63.1821 2.21873 61.4217C0.482454 59.6582 4.02982 53.1697 4.02982 53.1697C4.02982 53.1697 10.1115 53.2835 10.3733 59.6013Z" fill="#292F33"/>
<path d="M56.8889 14.2222H46.2222V7.11111C46.2222 3.184 43.0382 0 39.1111 0H24.8889C20.9618 0 17.7778 3.184 17.7778 7.11111V14.2222H7.11111C3.184 14.2222 0 17.4062 0 21.3333V56.8889C0 60.816 3.184 64 7.11111 64H56.8889C60.816 64 64 60.816 64 56.8889V21.3333C64 17.4062 60.816 14.2222 56.8889 14.2222ZM21.3333 10.6667C21.3333 8.704 22.9262 7.11111 24.8889 7.11111H39.1111C41.0738 7.11111 42.6667 8.704 42.6667 10.6667V14.2222H21.3333V10.6667Z" fill="#9A4E1C"/>
<path d="M64 35.5556C64 39.4827 60.816 42.6667 56.8889 42.6667H7.11111C3.184 42.6667 0 39.4827 0 35.5556V21.3333C0 17.4062 3.184 14.2222 7.11111 14.2222H56.8889C60.816 14.2222 64 17.4062 64 21.3333V35.5556Z" fill="#662113"/>
<path d="M64 32C64 35.9271 60.816 39.1111 56.8889 39.1111H7.11111C3.184 39.1111 0 35.9271 0 32V21.3333C0 17.4062 3.184 14.2222 7.11111 14.2222H56.8889C60.816 14.2222 64 17.4062 64 21.3333V32Z" fill="#9A4E1C"/>
<path d="M39.1109 32C39.1109 33.9627 37.518 35.5556 35.5553 35.5556H28.4442C26.4816 35.5556 24.8887 33.9627 24.8887 32C24.8887 30.0373 26.4816 28.4445 28.4442 28.4445H35.5553C37.518 28.4445 39.1109 30.0373 39.1109 32Z" fill="#CCD6DD"/>
</svg>
